<svg width="1440" height="982" viewBox="0 0 1440 982" fill="none" xmlns="http://www.w3.org/2000/svg">
<g opacity="0.2" clip-path="url(#clip0_2214_2339)">
<path d="M76.36 37.2405C74.7088 38.0767 74.5193 40.3966 76.0216 41.5296C76.5224 41.9207 77.6052 42.1096 78.2954 41.9342C78.7285 41.8263 79.5541 41.1115 79.8113 40.6259C80.0413 40.1808 80.0684 39.0613 79.8519 38.5218C79.6759 38.0632 79.1075 37.4428 78.6202 37.1865C78.1059 36.9168 76.9149 36.9438 76.36 37.2405Z" fill="#EFEFEF"/>
<path d="M218.388 37.2193C217.775 37.5445 217.509 37.8291 217.243 38.4118C216.511 40.0244 217.509 41.8266 219.186 41.9757C220.131 42.057 220.477 41.9486 221.049 41.4336C221.86 40.7155 222.166 39.8211 221.914 38.8996C221.754 38.2763 221.129 37.4768 220.57 37.1787C220.077 36.9212 218.893 36.9483 218.388 37.2193Z" fill="#EFEFEF"/>
<path d="M359.255 37.2841C358.039 37.9312 357.611 39.697 358.4 40.8833C359.081 41.9347 360.552 42.3122 361.702 41.719C362.945 41.0855 363.386 39.36 362.624 38.1199C361.982 37.0819 360.378 36.6775 359.255 37.2841Z" fill="#EFEFEF"/>
<path d="M501.495 37.1806C500.576 37.5863 499.843 38.9388 500.029 39.872C500.189 40.6159 500.709 41.3733 501.295 41.7114C502.082 42.1577 503.321 42.0766 504.028 41.5356C505.16 40.6565 505.334 38.8306 504.387 37.7621C503.761 37.0588 502.388 36.7883 501.495 37.1806Z" fill="#EFEFEF"/>
<path d="M644.482 37.1159C644.049 37.2928 643.427 37.8914 643.183 38.3539C642.953 38.7893 642.94 39.9185 643.143 40.4627C643.495 41.3878 644.428 42 645.524 42C647.933 42 648.907 38.9117 646.972 37.4152C646.58 37.1159 646.309 37.0343 645.646 37.0071C645.2 36.9799 644.672 37.0343 644.482 37.1159Z" fill="#EFEFEF"/>
<path d="M787.339 37.249C786.538 37.6821 786.076 38.3724 786.008 39.2658C785.899 40.863 786.931 42 788.493 42C789.512 42 790.354 41.4992 790.816 40.6194C791.047 40.1862 791.06 39.0627 790.857 38.5213C790.667 38.007 790.083 37.3978 789.553 37.1813C788.928 36.9106 787.896 36.9512 787.339 37.249Z" fill="#EFEFEF"/>
<path d="M929.375 37.2115C928.776 37.5223 928.497 37.8196 928.23 38.4142C927.738 39.4953 928.057 40.8197 928.976 41.536C929.681 42.0765 930.919 42.1576 931.705 41.7116C932.29 41.3738 932.809 40.617 932.969 39.8737C933.155 38.9683 932.477 37.6709 931.558 37.1844C931.066 36.9277 929.881 36.9412 929.375 37.2115Z" fill="#EFEFEF"/>
<path d="M1071.13 37.3938C1070.35 37.8779 1070 38.5636 1070 39.572C1070.01 41.9922 1073.26 42.92 1074.6 40.8762C1075.11 40.1233 1075.13 38.9266 1074.67 38.1737C1073.93 37.0039 1072.31 36.6409 1071.13 37.3938Z" fill="#EFEFEF"/>
<path d="M1213.48 37.1761C1212.91 37.4201 1212.26 38.2336 1212.09 38.898C1211.83 39.8199 1212.14 40.7148 1212.95 41.4333C1213.52 41.9486 1213.87 42.057 1214.81 41.9757C1216.45 41.8401 1217.44 40.0911 1216.81 38.5183C1216.54 37.8675 1216.26 37.5557 1215.65 37.2439C1215.08 36.9456 1214.07 36.9185 1213.48 37.1761Z" fill="#EFEFEF"/>
<path d="M1356.41 37.1566C1355.9 37.388 1355.33 38.0005 1355.14 38.5041C1354.95 39.0078 1354.95 40.1784 1355.14 40.5459C1355.37 40.9814 1355.95 41.594 1356.37 41.8117C1356.89 42.084 1358.08 42.0568 1358.63 41.7573C1360.3 40.9134 1360.48 38.5722 1358.97 37.4152C1358.58 37.1158 1358.31 37.0341 1357.65 37.0069C1357.15 36.9796 1356.66 37.0341 1356.41 37.1566Z" fill="#EFEFEF"/>
<path d="M5.90777 88.0769C4.28674 88.5619 3.53652 90.2662 4.30014 91.7082C4.64846 92.3637 5.14415 92.7308 5.96136 92.9274C7.99769 93.4256 9.6857 91.2625 8.72112 89.3878C8.19864 88.3915 6.88575 87.7754 5.90777 88.0769Z" fill="#EFEFEF"/>
<path d="M147.876 88.11C146.688 88.4483 146 89.346 146 90.5299C146 92.5985 148.443 93.7564 150.062 92.4423C151.641 91.1674 151.142 88.7345 149.198 88.1751C148.456 87.9539 148.402 87.9539 147.876 88.11Z" fill="#EFEFEF"/>
<path d="M289.705 88.1762C288.65 88.5364 288 89.4111 288 90.4916C288 91.2634 288.257 91.8166 288.853 92.3182C289.286 92.6784 290.07 93 290.503 93C291.315 93 292.506 92.2282 292.817 91.495C293.061 90.9676 293.061 90.0157 292.817 89.4883C292.587 88.9352 291.789 88.292 291.153 88.1248C290.503 87.9447 290.355 87.9576 289.705 88.1762Z" fill="#EFEFEF"/>
<path d="M432.207 88.0239C432.139 88.0501 431.911 88.1026 431.709 88.1419C431.211 88.2467 430.564 88.8102 430.228 89.4393C430.026 89.8455 429.972 90.1469 430.012 90.7366C430.147 92.5582 432.139 93.5804 433.768 92.65C435.411 91.7195 435.411 89.2689 433.768 88.3778C433.284 88.1157 432.462 87.9322 432.207 88.0239Z" fill="#EFEFEF"/>
<path d="M573.856 88.0866C571.895 88.6496 571.344 91.1503 572.902 92.4334C574.528 93.7688 577 92.5905 577 90.4957C577 88.8984 575.374 87.6546 573.856 88.0866Z" fill="#EFEFEF"/>
<path d="M715.794 88.087C715.512 88.166 715.042 88.4558 714.761 88.7324C713.151 90.313 714.264 93 716.531 93C717.98 93 719 91.9463 719 90.471C719 89.7861 718.946 89.5754 718.598 89.1012C717.954 88.2055 716.853 87.8104 715.794 88.087Z" fill="#EFEFEF"/>
<path d="M857.91 88.0825C855.992 88.6597 855.366 90.9292 856.738 92.2804C858.31 93.8284 860.987 92.7133 861 90.5094C861 88.9877 859.309 87.6496 857.91 88.0825Z" fill="#EFEFEF"/>
<path d="M1000.88 88.0734C999.7 88.4275 999.014 89.3193 999 90.4996C998.973 92.5848 1001.45 93.7651 1003.07 92.4406C1004.22 91.4963 1004.32 89.857 1003.28 88.7553C1002.73 88.1521 1001.63 87.8504 1000.88 88.0734Z" fill="#EFEFEF"/>
<path d="M1142.71 88.1762C1141.65 88.5364 1141 89.4111 1141 90.4916C1141 91.2634 1141.26 91.8166 1141.85 92.3182C1142.29 92.6784 1143.07 93 1143.5 93C1144.32 93 1145.51 92.2282 1145.82 91.495C1146.06 90.9676 1146.06 90.0157 1145.82 89.4883C1145.59 88.9352 1144.79 88.292 1144.15 88.1248C1143.5 87.9447 1143.35 87.9576 1142.71 88.1762Z" fill="#EFEFEF"/>
<path d="M1285.21 88.0286C1285.14 88.0548 1284.91 88.1072 1284.71 88.1465C1284.21 88.2512 1283.57 88.8142 1283.23 89.4426C1283.03 89.8485 1282.97 90.1496 1283.01 90.7388C1283.15 92.5586 1285.14 93.5799 1286.77 92.6503C1288.39 91.7207 1288.42 89.2724 1286.8 88.3952C1286.3 88.1203 1285.48 87.9239 1285.21 88.0286Z" fill="#EFEFEF"/>
<path d="M1426.86 88.0866C1424.89 88.6496 1424.34 91.1503 1425.9 92.4334C1427.53 93.7688 1430 92.5905 1430 90.4957C1430 88.8984 1428.37 87.6546 1426.86 88.0866Z" fill="#EFEFEF"/>
<path d="M76.5541 138.232C75.527 138.69 75 139.474 75 140.547C75 141.672 75.7568 142.614 76.8784 142.902C77.8649 143.151 78.6486 142.928 79.3514 142.209C79.8243 141.725 80 141.254 80 140.416C80 139.488 79.5 138.742 78.5946 138.31C77.7973 137.918 77.2838 137.905 76.5541 138.232Z" fill="#EFEFEF"/>
<path d="M218.676 138.155C216.3 139.008 216.501 142.392 218.957 142.93C219.91 143.14 220.689 142.878 221.373 142.117C223.065 140.241 221.051 137.29 218.676 138.155Z" fill="#EFEFEF"/>
<path d="M359.626 138.18C358.568 138.547 357.854 139.779 358.026 140.919C358.29 142.531 360.103 143.462 361.598 142.767C362.339 142.413 363 141.378 363 140.552C363 139.517 362.167 138.389 361.214 138.127C360.539 137.944 360.275 137.957 359.626 138.18Z" fill="#EFEFEF"/>
<path d="M502.712 138.13C502.07 138.313 501.294 139.14 501.094 139.849C500.652 141.372 501.829 142.96 503.394 142.999C504.129 143.012 504.517 142.894 505.079 142.487C506.657 141.319 506.109 138.642 504.183 138.117C503.595 137.959 503.314 137.959 502.712 138.13Z" fill="#EFEFEF"/>
<path d="M644.892 138.078C643.635 138.525 643 139.315 643 140.434C643 140.816 643.068 141.29 643.149 141.501C643.324 141.962 643.892 142.554 644.392 142.804C644.851 143.041 645.891 143.068 646.445 142.857C647.688 142.396 648.351 140.777 647.81 139.526C647.378 138.512 645.824 137.748 644.892 138.078Z" fill="#EFEFEF"/>
<path d="M786.715 138.182C786.055 138.406 785.341 139.088 785.139 139.666C784.574 141.32 785.799 143 787.563 143C788.29 143 788.829 142.777 789.354 142.226C789.825 141.74 790 141.267 790 140.44C790 139.377 789.34 138.498 788.263 138.143C787.684 137.946 787.374 137.946 786.715 138.182Z" fill="#EFEFEF"/>
<path d="M929.668 138.144C928.103 138.71 927.501 140.608 928.464 141.951C929.882 143.915 932.973 142.94 933 140.528C933.013 138.816 931.274 137.564 929.668 138.144Z" fill="#EFEFEF"/>
<path d="M1071.73 138.093C1071.1 138.279 1070.27 139.151 1070.09 139.826C1069.65 141.439 1070.83 143 1072.51 143C1073.34 143 1074.15 142.577 1074.61 141.889C1075.09 141.175 1075.13 139.985 1074.7 139.27C1074.13 138.292 1072.8 137.776 1071.73 138.093Z" fill="#EFEFEF"/>
<path d="M1213.69 138.129C1213.01 138.326 1212.26 139.151 1212.08 139.924C1211.57 141.98 1213.72 143.683 1215.62 142.727C1216.26 142.412 1216.54 142.111 1216.81 141.483C1217.39 140.133 1216.58 138.509 1215.17 138.116C1214.58 137.959 1214.3 137.959 1213.69 138.129Z" fill="#EFEFEF"/>
<path d="M1356.69 138.13C1355.66 138.486 1355 139.397 1355 140.44C1355 141.271 1355.18 141.746 1355.65 142.234C1356.19 142.802 1356.71 143 1357.52 143C1358.85 143 1359.88 142.089 1359.98 140.822C1360.07 139.885 1359.84 139.278 1359.2 138.711C1358.44 138.037 1357.55 137.839 1356.69 138.13Z" fill="#EFEFEF"/>
<path d="M5.99011 189.056C3.83954 189.552 3.27502 192.378 5.07612 193.61C5.76162 194.065 6.90411 194.132 7.65681 193.757C8.81274 193.168 9.3235 191.708 8.78586 190.503C8.31542 189.431 7.09228 188.802 5.99011 189.056Z" fill="#EFEFEF"/>
<path d="M148.235 189.021C148.168 189.048 147.939 189.101 147.737 189.14C147.279 189.247 146.471 189.924 146.202 190.441C145.933 190.946 145.933 192.14 146.202 192.645C146.498 193.216 147.293 193.84 147.831 193.946C150.47 194.424 152.032 191.636 150.214 189.725C149.824 189.313 148.653 188.902 148.235 189.021Z" fill="#EFEFEF"/>
<path d="M288.966 189.06C288.378 189.193 288.044 189.394 287.59 189.914C286.215 191.477 287.403 194 289.5 194C291.597 194 292.785 191.477 291.41 189.914C290.755 189.167 289.861 188.86 288.966 189.06Z" fill="#EFEFEF"/>
<path d="M431.836 189.127C430.362 189.501 429.612 191.076 430.202 192.491C430.603 193.453 431.447 194 432.479 194C433.684 194 434.595 193.306 434.89 192.158C435.171 191.116 434.917 190.342 434.086 189.621C433.671 189.247 433.457 189.154 432.68 189.007C432.559 188.98 432.184 189.034 431.836 189.127Z" fill="#EFEFEF"/>
<path d="M573.92 189.068C572.227 189.444 571.453 191.455 572.427 192.929C573.4 194.418 575.76 194.337 576.627 192.795C577.093 191.951 577.12 191.294 576.72 190.449C576.173 189.336 575.093 188.8 573.92 189.068Z" fill="#EFEFEF"/>
<path d="M716.009 189.059C715.299 189.218 714.75 189.59 714.362 190.149C714.067 190.601 714 190.854 714 191.518C714 192.196 714.067 192.436 714.375 192.875C715.607 194.643 718.206 194.257 718.889 192.21C719.452 190.481 717.777 188.646 716.009 189.059Z" fill="#EFEFEF"/>
<path d="M857.977 189.061C856.089 189.487 855.366 191.698 856.638 193.149C858.084 194.787 860.774 193.921 860.989 191.737C861.149 190.086 859.583 188.688 857.977 189.061Z" fill="#EFEFEF"/>
<path d="M1001.26 189.017C1001.19 189.043 1000.96 189.096 1000.76 189.136C1000.29 189.242 999.497 189.919 999.215 190.463C999.094 190.688 999 191.166 999 191.537C999 194.11 1002.56 194.959 1003.74 192.664C1004.26 191.643 1003.98 190.33 1003.07 189.561C1002.84 189.375 1002.5 189.189 1002.32 189.149C1001.63 189.003 1001.39 188.977 1001.26 189.017Z" fill="#EFEFEF"/>
<path d="M1142.96 189.05C1142.74 189.09 1142.42 189.211 1142.27 189.291C1141.77 189.545 1141.15 190.361 1141.06 190.856C1140.73 192.595 1141.83 194 1143.5 194C1145.16 194 1146.27 192.582 1145.94 190.856C1145.71 189.706 1144.18 188.769 1142.96 189.05Z" fill="#EFEFEF"/>
<path d="M1284.84 189.127C1283.32 189.513 1282.58 191.139 1283.25 192.604C1283.92 194.07 1285.94 194.47 1287.17 193.377C1287.76 192.844 1288.01 192.231 1288 191.379C1287.99 190.659 1287.73 190.153 1287.1 189.62C1286.68 189.247 1286.47 189.153 1285.69 189.007C1285.56 188.98 1285.19 189.034 1284.84 189.127Z" fill="#EFEFEF"/>
<path d="M1426.93 189.066C1425.23 189.441 1424.45 191.452 1425.43 192.926C1426.43 194.441 1428.77 194.334 1429.68 192.725C1430.73 190.862 1429.02 188.583 1426.93 189.066Z" fill="#EFEFEF"/>
<path d="M76.7075 239.13C75.6505 239.517 75 240.423 75 241.542C75 242.568 75.5556 243.408 76.5313 243.808C77.6155 244.248 78.8487 243.914 79.5669 242.995C79.865 242.595 79.9463 242.342 79.987 241.622C80.0276 240.849 79.987 240.676 79.6618 240.183C79.0113 239.21 77.751 238.757 76.7075 239.13Z" fill="#EFEFEF"/>
<path d="M218.662 239.184C216.609 239.897 216.408 242.805 218.34 243.731C220.326 244.669 222.433 243.017 221.923 240.928C221.735 240.122 221.024 239.382 220.245 239.144C219.561 238.946 219.319 238.946 218.662 239.184Z" fill="#EFEFEF"/>
<path d="M359.65 239.142C358.713 239.501 358 240.564 358 241.614C358.013 242.411 358.832 243.567 359.624 243.86C360.139 244.059 360.957 244.046 361.472 243.82C362.013 243.594 362.673 242.836 362.884 242.212C363.505 240.338 361.512 238.464 359.65 239.142Z" fill="#EFEFEF"/>
<path d="M502.682 239.152C501.529 239.523 500.751 240.966 501.073 242.144C501.247 242.806 501.918 243.586 502.508 243.825C503.567 244.261 504.975 243.851 505.592 242.938C506.517 241.548 505.793 239.563 504.197 239.126C503.58 238.954 503.299 238.954 502.682 239.152Z" fill="#EFEFEF"/>
<path d="M644.766 239.141C644.076 239.326 643.697 239.631 643.305 240.267C643.007 240.758 642.966 240.97 643.02 241.685C643.061 242.348 643.156 242.626 643.44 243.011C644.915 244.892 648 243.912 648 241.566C648 241.235 647.919 240.771 647.811 240.532C647.581 239.963 646.782 239.3 646.146 239.128C645.551 238.955 645.388 238.955 644.766 239.141Z" fill="#EFEFEF"/>
<path d="M786.701 239.126C785.648 239.513 785 240.42 785 241.54C785 242.567 785.553 243.408 786.525 243.808C787.605 244.248 788.833 243.914 789.549 242.994C790.075 242.301 790.156 241.06 789.711 240.273C789.13 239.273 787.767 238.74 786.701 239.126Z" fill="#EFEFEF"/>
<path d="M929.662 239.184C927.609 239.897 927.408 242.805 929.34 243.731C931.313 244.669 933.433 243.017 932.923 240.928C932.735 240.122 932.024 239.382 931.246 239.144C930.561 238.946 930.32 238.946 929.662 239.184Z" fill="#EFEFEF"/>
<path d="M1070.81 239.104C1069.83 239.394 1069 240.488 1069 241.478C1069 242.071 1069.4 242.902 1069.87 243.351C1071.12 244.498 1073.04 244.076 1073.78 242.467C1074.65 240.581 1072.81 238.51 1070.81 239.104Z" fill="#EFEFEF"/>
<path d="M1213.75 239.129C1212.06 239.727 1211.44 241.759 1212.58 243.087C1213.99 244.774 1216.73 243.99 1216.98 241.825C1217.18 240.032 1215.41 238.545 1213.75 239.129Z" fill="#EFEFEF"/>
<path d="M1356.54 239.251C1355.39 239.779 1354.93 240.506 1355.01 241.708C1355.08 242.685 1355.5 243.332 1356.34 243.755C1357.22 244.191 1358.5 244.032 1359.23 243.385C1359.94 242.764 1360.21 241.443 1359.82 240.545C1359.48 239.726 1358.3 239 1357.36 239C1357.21 239 1356.84 239.119 1356.54 239.251Z" fill="#EFEFEF"/>
<path d="M5.47331 290.233C4.40585 290.708 3.77873 292.029 4.07228 293.125C4.24574 293.745 4.87286 294.525 5.43328 294.815C5.63342 294.908 6.11378 295 6.48739 295C9.20939 295 9.98329 291.342 7.48812 290.233C6.80762 289.916 6.16715 289.929 5.47331 290.233Z" fill="#EFEFEF"/>
<path d="M147.748 290.099C145.993 290.616 145.404 292.953 146.703 294.294C147.266 294.851 147.868 295.063 148.779 294.984C150.788 294.811 151.726 292.316 150.346 290.842C149.663 290.112 148.645 289.833 147.748 290.099Z" fill="#EFEFEF"/>
<path d="M289.682 290.124C288.912 290.43 288.682 290.616 288.317 291.227C288.007 291.745 287.966 291.931 288.02 292.675C288.061 293.379 288.142 293.618 288.48 294.03C289.02 294.694 289.655 295 290.493 295C291.33 295 291.965 294.694 292.506 294.03C293.357 292.994 293.073 291.201 291.925 290.43C291.33 290.018 290.29 289.872 289.682 290.124Z" fill="#EFEFEF"/>
<path d="M431.492 290.248C430.169 290.923 429.656 292.273 430.237 293.557C430.75 294.708 432.127 295.278 433.396 294.867C435.259 294.258 435.583 291.492 433.923 290.42C433.167 289.93 432.235 289.864 431.492 290.248Z" fill="#EFEFEF"/>
<path d="M573.514 290.225C571.015 291.336 571.79 295 574.516 295C575.331 295 575.799 294.775 576.36 294.153C577.162 293.241 577.215 291.997 576.493 291.018C575.799 290.066 574.583 289.735 573.514 290.225Z" fill="#EFEFEF"/>
<path d="M715.501 290.237C713.6 291.107 713.482 293.598 715.277 294.692C715.964 295.113 717.006 295.1 717.759 294.665C718.353 294.31 719 293.268 719 292.636C719 291.608 718.393 290.646 717.482 290.237C716.808 289.921 716.175 289.921 715.501 290.237Z" fill="#EFEFEF"/>
<path d="M857.436 290.261C855.924 291 855.523 292.901 856.633 294.155C857.195 294.776 857.664 295 858.48 295C861.21 295 861.986 291.343 859.484 290.234C858.774 289.918 858.132 289.918 857.436 290.261Z" fill="#EFEFEF"/>
<path d="M1000.75 290.114C999.723 290.417 999 291.42 999 292.554C999 295.139 1002.65 295.957 1003.74 293.623C1004.37 292.264 1003.83 290.866 1002.45 290.233C1001.89 289.969 1001.34 289.929 1000.75 290.114Z" fill="#EFEFEF"/>
<path d="M1142.73 290.064C1142.1 290.263 1141.57 290.729 1141.27 291.355C1140.65 292.619 1141.14 294.137 1142.37 294.776C1143.07 295.149 1144.34 295.042 1144.98 294.563C1146.82 293.165 1146.03 290.21 1143.76 290.01C1143.39 289.984 1142.93 290.01 1142.73 290.064Z" fill="#EFEFEF"/>
<path d="M1284.67 290.098C1284.14 290.296 1283.41 290.985 1283.18 291.502C1282.91 292.111 1282.95 293.051 1283.26 293.661C1284 295.091 1285.95 295.449 1287.17 294.376C1288.38 293.303 1288.25 291.276 1286.91 290.415C1286.32 290.031 1285.28 289.886 1284.67 290.098Z" fill="#EFEFEF"/>
<path d="M1426.51 290.226C1424.01 291.337 1424.79 295 1427.52 295C1428.33 295 1428.8 294.775 1429.36 294.154C1429.92 293.506 1430.12 292.752 1429.92 291.972C1429.52 290.372 1427.96 289.578 1426.51 290.226Z" fill="#EFEFEF"/>
<path d="M76.3681 341.269C74.9588 341.955 74.5522 343.907 75.555 345.147C76.3139 346.097 78.035 346.295 78.9972 345.53C79.6883 344.989 80 344.369 80 343.525C80 342.403 79.4715 341.599 78.4687 341.19C77.7775 340.913 77.0593 340.939 76.3681 341.269Z" fill="#EFEFEF"/>
<path d="M218.512 341.174C216.149 342.205 216.683 345.734 219.233 345.985C220.114 346.065 220.742 345.827 221.303 345.219C222.05 344.399 222.211 343.275 221.717 342.31C221.169 341.24 219.607 340.698 218.512 341.174Z" fill="#EFEFEF"/>
<path d="M359.51 341.211C358.899 341.527 358.501 341.922 358.235 342.502C357.903 343.227 357.916 343.846 358.315 344.624C359.271 346.521 361.887 346.442 362.776 344.479C363.361 343.201 362.763 341.751 361.409 341.185C360.785 340.934 360.028 340.934 359.51 341.211Z" fill="#EFEFEF"/>
<path d="M502.542 341.212C501.85 341.515 501.371 342.015 501.132 342.739C500.44 344.832 502.595 346.702 504.603 345.741C506.092 345.03 506.465 343.108 505.361 341.896C504.563 341.014 503.552 340.777 502.542 341.212Z" fill="#EFEFEF"/>
<path d="M644.487 341.168C643.865 341.446 643.567 341.724 643.243 342.346C642.85 343.113 642.945 344.331 643.446 344.992C644.609 346.475 646.895 346.289 647.748 344.648C648.302 343.576 647.91 342.055 646.895 341.406C646.232 340.969 645.177 340.877 644.487 341.168Z" fill="#EFEFEF"/>
<path d="M786.381 341.259C785.3 341.788 784.732 343.162 785.124 344.325C785.773 346.215 788.299 346.598 789.556 344.999C790.259 344.087 790.11 342.382 789.232 341.616C788.502 340.955 787.3 340.81 786.381 341.259Z" fill="#EFEFEF"/>
<path d="M929.497 341.164C928.968 341.389 928.307 342.157 928.109 342.766C927.884 343.441 928.017 344.329 928.413 344.938C929.021 345.851 930.409 346.262 931.453 345.825C932.247 345.494 933 344.355 933 343.481C933 343.084 932.603 342.117 932.299 341.786C931.639 341.072 930.356 340.793 929.497 341.164Z" fill="#EFEFEF"/>
<path d="M1070.74 341.063C1069.86 341.342 1069 342.523 1069 343.478C1069 344.526 1069.98 345.76 1070.91 345.946C1072.13 346.172 1073.16 345.681 1073.68 344.619C1074.09 343.797 1074.11 343.173 1073.72 342.417C1073.27 341.541 1072.59 341.05 1071.74 341.01C1071.36 340.984 1070.91 341.01 1070.74 341.063Z" fill="#EFEFEF"/>
<path d="M1213.47 341.238C1212.4 341.725 1211.77 343.029 1212.08 344.134C1212.16 344.437 1212.44 344.924 1212.69 345.2C1214.28 346.938 1217.19 345.635 1216.99 343.292C1216.84 341.554 1215.04 340.501 1213.47 341.238Z" fill="#EFEFEF"/>
<path d="M1355.65 341.107C1353.95 341.823 1353.45 343.905 1354.68 345.271C1355.5 346.199 1357.23 346.253 1358.26 345.364C1359.38 344.396 1359.2 342.247 1357.91 341.412C1357.33 341.027 1356.21 340.881 1355.65 341.107Z" fill="#EFEFEF"/>
<path d="M5.60462 391.183C4.50022 391.566 3.75509 392.98 4.07443 394.129C4.447 395.556 6.12356 396.388 7.44086 395.82C7.95979 395.595 8.66501 394.882 8.85129 394.38C9.31701 393.152 8.6517 391.725 7.37432 391.183C6.77555 390.946 6.30984 390.932 5.60462 391.183Z" fill="#EFEFEF"/>
<path d="M147.702 391.141C147.042 391.38 146.571 391.766 146.274 392.338C145.978 392.91 145.911 393.894 146.126 394.452C146.894 396.407 149.802 396.54 150.717 394.678C151.377 393.309 150.852 391.872 149.452 391.234C148.859 390.955 148.307 390.928 147.702 391.141Z" fill="#EFEFEF"/>
<path d="M289.689 391.153C288.622 391.564 288 392.413 288 393.46C288 395.065 289.216 396.165 290.784 395.98C293.229 395.714 293.837 392.466 291.662 391.352C290.892 390.955 290.351 390.901 289.689 391.153Z" fill="#EFEFEF"/>
<path d="M431.547 391.201C430.137 391.867 429.626 393.293 430.284 394.666C431.265 396.665 434.341 396.346 434.905 394.186C435.321 392.627 434.327 391.187 432.742 391.014C432.259 390.974 431.936 391.014 431.547 391.201Z" fill="#EFEFEF"/>
<path d="M573.521 391.199C571.839 392.009 571.481 394.039 572.806 395.3C574.913 397.291 578.119 394.65 576.609 392.181C575.986 391.159 574.555 390.708 573.521 391.199Z" fill="#EFEFEF"/>
<path d="M715.665 391.183C715.001 391.408 714.536 391.843 714.231 392.504C713.66 393.732 714.178 395.093 715.466 395.753C716.701 396.387 718.241 395.753 718.826 394.393C719.37 393.085 718.587 391.513 717.192 391.117C716.555 390.945 716.289 390.959 715.665 391.183Z" fill="#EFEFEF"/>
<path d="M857.772 391.103C856.534 391.477 855.735 392.903 856.081 394.143C856.627 396.21 859.37 396.677 860.582 394.904C861.874 393.037 859.956 390.45 857.772 391.103Z" fill="#EFEFEF"/>
<path d="M1000.75 391.093C998.587 391.732 998.372 394.844 1000.43 395.762C1002.36 396.626 1004.35 395.017 1003.95 392.889C1003.71 391.625 1002.07 390.694 1000.75 391.093Z" fill="#EFEFEF"/>
<path d="M1142.89 391.071C1141.64 391.521 1141 392.314 1141 393.452C1141 395.528 1143.16 396.692 1144.92 395.555C1146.23 394.708 1146.38 392.605 1145.2 391.666C1144.54 391.137 1143.49 390.86 1142.89 391.071Z" fill="#EFEFEF"/>
<path d="M1284.55 391.228C1283.15 391.867 1282.62 393.305 1283.28 394.677C1284.2 396.541 1287.1 396.408 1287.86 394.45C1288.23 393.505 1287.82 392.067 1287.07 391.534C1286.21 390.948 1285.38 390.842 1284.55 391.228Z" fill="#EFEFEF"/>
<path d="M1426.52 391.199C1424.84 392.009 1424.48 394.039 1425.81 395.3C1427.91 397.291 1431.12 394.65 1429.61 392.181C1428.99 391.159 1427.55 390.708 1426.52 391.199Z" fill="#EFEFEF"/>
<path d="M76.3646 442.271C74.669 443.096 74.5198 445.598 76.1069 446.622C76.8936 447.128 78.0873 447.128 78.8877 446.609C79.6066 446.157 80 445.412 80 444.52C80 443.416 79.4574 442.604 78.4672 442.191C77.7754 441.912 77.0564 441.939 76.3646 442.271Z" fill="#EFEFEF"/>
<path d="M218.547 442.185C216.885 442.912 216.473 445.055 217.749 446.259C219.172 447.608 221.3 447.04 221.898 445.161C222.496 443.296 220.342 441.391 218.547 442.185Z" fill="#EFEFEF"/>
<path d="M359.503 442.241C357.458 443.18 357.511 445.945 359.596 446.818C360.818 447.321 362.186 446.752 362.771 445.495C363.368 444.225 362.757 442.756 361.403 442.188C360.752 441.923 360.154 441.936 359.503 442.241Z" fill="#EFEFEF"/>
<path d="M502.479 442.234C501.002 442.898 500.55 444.652 501.495 445.967C502.226 446.976 503.464 447.282 504.541 446.724C506.51 445.728 506.484 443.137 504.475 442.234C503.796 441.915 503.158 441.929 502.479 442.234Z" fill="#EFEFEF"/>
<path d="M644.638 442.095C643.582 442.535 643 443.387 643 444.492C643 445.744 643.839 446.743 645.071 446.969C646.14 447.156 647.399 446.476 647.818 445.478C648.265 444.426 647.859 443.014 646.925 442.415C646.357 442.042 645.165 441.882 644.638 442.095Z" fill="#EFEFEF"/>
<path d="M786.374 442.269C784.872 443.011 784.534 444.944 785.697 446.176C787.28 447.858 790 446.798 790 444.507C790 442.64 788.038 441.435 786.374 442.269Z" fill="#EFEFEF"/>
<path d="M928.678 442.108C928.184 442.266 927.423 442.98 927.183 443.522C926.503 445.096 927.81 447 929.572 447C930.239 447 931.146 446.484 931.6 445.836C931.933 445.36 932 445.136 932 444.488C932 443.84 931.933 443.615 931.6 443.139C930.919 442.187 929.785 441.79 928.678 442.108Z" fill="#EFEFEF"/>
<path d="M1071.5 442.241C1069.46 443.18 1069.51 445.945 1071.6 446.818C1072.82 447.321 1074.19 446.752 1074.77 445.495C1075.37 444.225 1074.76 442.756 1073.4 442.188C1072.75 441.923 1072.15 441.936 1071.5 442.241Z" fill="#EFEFEF"/>
<path d="M1213.48 442.239C1212.01 442.902 1211.54 444.667 1212.5 445.981C1213.23 446.976 1214.47 447.281 1215.56 446.724C1216.43 446.286 1216.92 445.596 1216.99 444.747C1217.15 442.783 1215.25 441.429 1213.48 442.239Z" fill="#EFEFEF"/>
<path d="M1356.49 442.167C1355.53 442.61 1355 443.429 1355 444.516C1355 445.953 1356.02 447 1357.43 447C1358.91 447 1359.87 446.127 1359.99 444.718C1360.11 443.268 1359.12 442.1 1357.67 442.006C1357.22 441.979 1356.79 442.046 1356.49 442.167Z" fill="#EFEFEF"/>
<path d="M5.40236 493.23C4.0751 493.959 3.61056 495.562 4.35383 496.78C4.752 497.442 5.48199 497.906 6.19871 497.985C7.08798 498.065 7.69851 497.826 8.30905 497.164C9.3974 495.999 9.17177 494.29 7.83124 493.376C7.20743 492.939 6.06599 492.873 5.40236 493.23Z" fill="#EFEFEF"/>
<path d="M147.345 493.272C146.805 493.548 146.251 494.193 146.089 494.706C145.914 495.259 146.008 496.141 146.278 496.681C147.534 499.063 151.219 497.984 150.99 495.312C150.841 493.535 148.924 492.469 147.345 493.272Z" fill="#EFEFEF"/>
<path d="M289.493 492.191C288.529 492.602 288 493.411 288 494.498C288 495.599 288.543 496.408 289.533 496.819C290.402 497.177 291.569 496.991 292.247 496.381C293.251 495.493 293.251 493.504 292.247 492.615C291.569 492.005 290.361 491.82 289.493 492.191Z" fill="#EFEFEF"/>
<path d="M431.352 493.265C429.675 494.085 429.527 496.571 431.084 497.576C432.586 498.554 434.532 497.761 434.935 496.015C435.404 493.979 433.257 492.339 431.352 493.265Z" fill="#EFEFEF"/>
<path d="M573.506 493.139C572.235 493.708 571.646 495.242 572.221 496.473C572.85 497.822 574.308 498.378 575.566 497.73C577.894 496.565 577.239 493.152 574.67 493.007C574.215 492.98 573.747 493.033 573.506 493.139Z" fill="#EFEFEF"/>
<path d="M715.517 493.153C714.686 493.537 714 494.611 714 495.526C714 495.764 714.132 496.228 714.303 496.546C715.293 498.509 717.865 498.482 718.762 496.48C719.092 495.764 719.079 495.128 718.723 494.425C718.261 493.524 717.588 493.06 716.665 493.007C716.216 492.98 715.754 493.033 715.517 493.153Z" fill="#EFEFEF"/>
<path d="M857.405 493.248C856.091 493.935 855.601 495.559 856.357 496.774C856.954 497.752 858.227 498.24 859.302 497.884C860.204 497.593 861 496.431 861 495.44C860.987 494.569 860.191 493.433 859.368 493.129C858.798 492.918 857.935 492.971 857.405 493.248Z" fill="#EFEFEF"/>
<path d="M1000.36 493.272C998.537 494.22 998.551 496.801 1000.38 497.723C1002.15 498.606 1004.15 497.262 1003.99 495.313C1003.84 493.535 1001.93 492.468 1000.36 493.272Z" fill="#EFEFEF"/>
<path d="M1142.48 492.191C1141.88 492.456 1141.56 492.735 1141.25 493.331C1140.76 494.259 1141.01 495.718 1141.77 496.381C1142.44 496.991 1143.61 497.177 1144.47 496.819C1145.12 496.553 1145.44 496.275 1145.75 495.665C1146.24 494.737 1145.99 493.278 1145.23 492.615C1144.56 492.005 1143.35 491.82 1142.48 492.191Z" fill="#EFEFEF"/>
<path d="M1284.36 493.27C1283.15 493.864 1282.65 495.383 1283.26 496.624C1284.05 498.249 1286.38 498.486 1287.47 497.06C1287.89 496.519 1288.01 496.136 1288 495.423C1287.96 493.587 1286.05 492.451 1284.36 493.27Z" fill="#EFEFEF"/>
<path d="M1426.51 493.14C1425.13 493.777 1424.56 495.651 1425.38 496.874C1426.37 498.282 1428.32 498.388 1429.41 497.086C1430.73 495.532 1429.69 493.126 1427.67 493.007C1427.22 492.98 1426.75 493.033 1426.51 493.14Z" fill="#EFEFEF"/>
<path d="M76.4062 543.179C75.3755 543.737 74.928 544.521 75.0094 545.637C75.1179 547.111 76.2706 548.121 77.6945 547.988C79.0643 547.855 80 546.833 80 545.464C80 544.614 79.6881 543.99 78.9964 543.445C78.5896 543.113 78.3591 543.033 77.6539 543.007C77.0707 542.98 76.691 543.033 76.4062 543.179Z" fill="#EFEFEF"/>
<path d="M218.162 543.392C216.68 544.329 216.599 546.335 218.015 547.483C219.377 548.591 221.5 547.826 221.927 546.071C222.448 543.893 220.071 542.204 218.162 543.392Z" fill="#EFEFEF"/>
<path d="M359.372 543.272C358.554 543.681 358 544.605 358 545.569C358 546.097 358.396 546.954 358.805 547.324C360.084 548.499 362.037 548.09 362.763 546.506C363.079 545.833 363.079 545.199 362.763 544.526C362.129 543.166 360.678 542.625 359.372 543.272Z" fill="#EFEFEF"/>
<path d="M501.493 543.193C500.921 543.443 500.269 544.222 500.083 544.881C499.564 546.795 501.572 548.576 503.394 547.824C505.309 547.019 505.575 544.472 503.846 543.391C503.155 542.955 502.211 542.876 501.493 543.193Z" fill="#EFEFEF"/>
<path d="M644.422 543.213C643.434 543.714 643 544.413 643 545.507C643 547.932 646.211 548.934 647.579 546.93C648.256 545.928 648.094 544.373 647.254 543.648C646.495 543.002 645.222 542.804 644.422 543.213Z" fill="#EFEFEF"/>
<path d="M786.413 543.179C785.484 543.684 785 544.455 785 545.439C785 547.977 788.229 548.961 789.588 546.848C790.315 545.718 790.059 544.309 788.983 543.445C788.579 543.113 788.35 543.033 787.651 543.007C787.072 542.98 786.695 543.033 786.413 543.179Z" fill="#EFEFEF"/>
<path d="M929.237 543.267C928.968 543.412 928.578 543.768 928.363 544.071C928.054 544.532 928 544.756 928 545.508C928 546.299 928.04 546.444 928.417 546.906C928.901 547.512 929.828 548 930.487 548C932.06 547.987 933.337 546.352 932.92 544.862C932.732 544.189 932.06 543.412 931.468 543.174C930.85 542.911 929.842 542.95 929.237 543.267Z" fill="#EFEFEF"/>
<path d="M1070.52 543.178C1069.7 543.549 1069 544.634 1069 545.535C1069 546.078 1069.4 546.938 1069.81 547.322C1071.09 548.5 1073.04 548.09 1073.76 546.501C1074.11 545.76 1074.08 545.124 1073.65 544.304C1073.38 543.787 1073.14 543.536 1072.71 543.297C1072.05 542.953 1071.14 542.9 1070.52 543.178Z" fill="#EFEFEF"/>
<path d="M1213.47 543.192C1213.24 543.284 1212.87 543.574 1212.64 543.837C1210.91 545.784 1212.99 548.784 1215.38 547.811C1217.31 547.008 1217.58 544.468 1215.84 543.389C1215.14 542.955 1214.19 542.876 1213.47 543.192Z" fill="#EFEFEF"/>
<path d="M1356.38 543.222C1356.12 543.354 1355.73 543.685 1355.5 543.963C1354.94 544.638 1354.83 545.856 1355.27 546.677C1355.87 547.842 1357.39 548.332 1358.59 547.762C1360.27 546.968 1360.5 544.572 1359 543.447C1358.35 542.957 1357.09 542.851 1356.38 543.222Z" fill="#EFEFEF"/>
<path d="M5.39867 594.267C3.65749 595.183 3.51128 597.52 5.13284 598.582C6.42212 599.432 8.11014 598.941 8.74813 597.52C9.20004 596.537 9.04054 595.608 8.29622 594.812C7.51202 593.988 6.34237 593.763 5.39867 594.267Z" fill="#EFEFEF"/>
<path d="M147.431 594.236C146.852 594.488 146.273 595.14 146.098 595.699C145.802 596.656 146.205 597.96 146.946 598.492C148.01 599.237 149.235 599.157 150.204 598.292C150.823 597.734 151.066 597.108 150.985 596.231C150.81 594.515 149.033 593.517 147.431 594.236Z" fill="#EFEFEF"/>
<path d="M289.635 594.128C288.608 594.541 288 595.406 288 596.51C288 597.308 288.23 597.787 288.865 598.333C290.067 599.384 291.77 599.171 292.608 597.854C293.256 596.869 293.081 595.366 292.229 594.621C291.608 594.062 290.392 593.836 289.635 594.128Z" fill="#EFEFEF"/>
<path d="M431.356 594.257C429.929 594.964 429.543 596.939 430.609 598.113C432.796 600.528 436.395 597.526 434.435 594.924C433.742 594.03 432.409 593.737 431.356 594.257Z" fill="#EFEFEF"/>
<path d="M573.51 594.187C573.297 594.279 572.911 594.558 572.671 594.811C571.38 596.139 572.045 598.437 573.87 598.915C575.667 599.407 577.398 597.68 576.919 595.887C576.533 594.452 574.828 593.602 573.51 594.187Z" fill="#EFEFEF"/>
<path d="M715.521 594.217C714.622 594.678 714 595.614 714 596.51C714 597.537 714.82 598.605 715.825 598.881C716.433 599.04 716.592 599.04 717.2 598.881C718.589 598.486 719.369 596.918 718.827 595.614C718.271 594.296 716.671 593.624 715.521 594.217Z" fill="#EFEFEF"/>
<path d="M857.399 594.267C855.657 595.183 855.511 597.52 857.133 598.582C858.422 599.432 860.11 598.941 860.748 597.52C861.2 596.537 861.041 595.608 860.296 594.812C859.512 593.988 858.342 593.763 857.399 594.267Z" fill="#EFEFEF"/>
<path d="M1000.44 594.241C999.704 594.573 999.301 595.05 999.086 595.832C998.575 597.807 1000.43 599.543 1002.32 598.841C1003.06 598.563 1003.83 597.741 1003.95 597.104C1004.35 594.997 1002.36 593.366 1000.44 594.241Z" fill="#EFEFEF"/>
<path d="M1142.64 594.128C1141.19 594.701 1140.6 596.271 1141.29 597.668C1141.77 598.666 1143.14 599.238 1144.19 598.905C1144.77 598.719 1145.51 598.093 1145.81 597.548C1146.23 596.75 1145.93 595.246 1145.23 594.621C1144.61 594.062 1143.39 593.836 1142.64 594.128Z" fill="#EFEFEF"/>
<path d="M1284.37 594.253C1283.3 594.786 1282.73 596.172 1283.12 597.345C1283.32 597.958 1284.17 598.705 1284.88 598.918C1285.54 599.118 1286.41 598.944 1287.06 598.491C1287.8 597.958 1288.2 596.652 1287.9 595.693C1287.47 594.293 1285.74 593.587 1284.37 594.253Z" fill="#EFEFEF"/>
<path d="M1426.52 594.186C1426.02 594.41 1425.33 595.133 1425.14 595.62C1424.81 596.488 1425.09 597.632 1425.82 598.303C1426.19 598.645 1427 599 1427.42 599C1429.04 599 1430.34 597.382 1429.92 595.87C1429.54 594.436 1427.84 593.607 1426.52 594.186Z" fill="#EFEFEF"/>
<path d="M76.4075 644.224C75.3759 644.753 74.9279 645.533 75.0094 646.658C75.0772 647.651 75.5523 648.365 76.4075 648.762C77.6156 649.331 79.1358 648.841 79.7331 647.703C80.2353 646.751 80.0046 645.295 79.2444 644.647C78.4843 643.999 77.2083 643.8 76.4075 644.224Z" fill="#EFEFEF"/>
<path d="M218.359 645.282C216.904 645.991 216.544 647.923 217.638 649.105C218.466 650.012 219.467 650.235 220.549 649.749C222.071 649.066 222.484 647.082 221.363 645.834C220.589 644.98 219.441 644.756 218.359 645.282Z" fill="#EFEFEF"/>
<path d="M359.513 644.176C358.671 644.564 358.013 645.593 358 646.528C358 647.183 358.487 648.105 359.092 648.586C359.553 648.96 359.697 649 360.5 649C361.303 649 361.447 648.96 361.908 648.586C362.513 648.105 363 647.183 363 646.528C362.987 645.593 362.224 644.457 361.382 644.136C360.882 643.936 359.987 643.963 359.513 644.176Z" fill="#EFEFEF"/>
<path d="M501.52 645.195C500.74 645.523 500 646.665 500 647.519C500 647.913 500.397 648.871 500.701 649.199C501.097 649.619 501.943 650 502.551 650C503.979 650 505.155 648.635 504.983 647.164C504.811 645.576 503.001 644.552 501.52 645.195Z" fill="#EFEFEF"/>
<path d="M644.315 644.251C643.488 644.675 643.068 645.338 643.014 646.306C642.973 646.943 643.014 647.235 643.244 647.659C644.437 649.966 648 649.104 648 646.532C648 645.922 647.715 645.139 647.35 644.742C646.672 643.999 645.249 643.774 644.315 644.251Z" fill="#EFEFEF"/>
<path d="M786.419 645.227C785.486 645.702 785 646.48 785 647.455C785 650.092 788.527 650.988 789.743 648.655C790.148 647.877 790.067 646.664 789.553 646.005C788.824 645.082 787.378 644.727 786.419 645.227Z" fill="#EFEFEF"/>
<path d="M928.341 645.267C927.354 645.757 926.827 646.908 927.051 648.098C927.156 648.667 927.946 649.593 928.538 649.845C929.407 650.202 930.644 649.924 931.302 649.21C931.605 648.879 932 647.913 932 647.516C932 646.643 931.25 645.506 930.46 645.175C929.841 644.91 928.986 644.95 928.341 645.267Z" fill="#EFEFEF"/>
<path d="M1071.49 645.161C1070.96 645.399 1070.44 645.981 1070.18 646.589C1069.34 648.599 1071.59 650.741 1073.52 649.75C1074.4 649.287 1075 648.375 1075 647.449C1075 646.814 1074.42 645.756 1073.86 645.386C1073.28 644.989 1072.1 644.87 1071.49 645.161Z" fill="#EFEFEF"/>
<path d="M1213.49 645.175C1212.93 645.412 1212.27 646.205 1212.09 646.839C1211.43 649.282 1214.47 651.065 1216.26 649.269C1217.47 648.067 1217.15 645.993 1215.66 645.267C1214.99 644.95 1214.09 644.91 1213.49 645.175Z" fill="#EFEFEF"/>
<path d="M1356.36 644.244C1356.1 644.376 1355.71 644.707 1355.49 644.972C1354.69 645.925 1354.9 647.712 1355.89 648.467C1357.15 649.434 1359.06 649.036 1359.73 647.673C1360.2 646.719 1360.05 645.475 1359.37 644.747C1358.69 644.019 1357.25 643.767 1356.36 644.244Z" fill="#EFEFEF"/>
<path d="M5.26906 695.291C3.83476 696.108 3.56667 698.046 4.71947 699.233C5.47012 700.011 6.50228 700.209 7.48081 699.773C8.92851 699.127 9.45129 697.374 8.56659 696.069C7.89636 695.067 6.31461 694.684 5.26906 695.291Z" fill="#EFEFEF"/>
<path d="M147.434 695.177C145.194 696.158 145.693 699.593 148.136 699.977C149.162 700.137 150.417 699.434 150.822 698.479C151.186 697.644 150.971 696.397 150.363 695.747C149.729 695.058 148.325 694.792 147.434 695.177Z" fill="#EFEFEF"/>
<path d="M289.419 695.201C288.486 695.68 288 696.478 288 697.528C288 698.844 288.919 699.841 290.257 699.987C291.203 700.093 292.257 699.535 292.703 698.711C293.162 697.847 293.081 696.664 292.514 695.959C292.284 695.68 291.892 695.348 291.635 695.228C291.068 694.935 289.96 694.922 289.419 695.201Z" fill="#EFEFEF"/>
<path d="M431.41 695.205C430.808 695.511 430.526 695.803 430.259 696.388C429.763 697.452 429.991 698.595 430.848 699.34C432.536 700.802 435 699.686 435 697.452C435 696.428 434.357 695.471 433.446 695.139C432.897 694.926 431.879 694.966 431.41 695.205Z" fill="#EFEFEF"/>
<path d="M573.264 695.268C571.898 695.983 571.577 697.903 572.608 699.122C573.933 700.685 576.383 700.062 576.932 698.036C577.213 696.976 576.597 695.705 575.566 695.175C575.031 694.91 573.88 694.95 573.264 695.268Z" fill="#EFEFEF"/>
<path d="M715.174 695.397C714.726 695.674 714.501 695.937 714.29 696.438C714.132 696.807 714 697.242 714 697.413C714 699.205 715.808 700.483 717.405 699.824C718.051 699.547 718.474 699.139 718.764 698.507C719.793 696.28 717.246 694.079 715.174 695.397Z" fill="#EFEFEF"/>
<path d="M857.356 695.252C856.312 695.874 855.803 696.998 856.071 698.044C856.579 699.949 858.695 700.624 860.168 699.341C861.454 698.229 861.213 696.019 859.699 695.265C859.016 694.921 857.905 694.907 857.356 695.252Z" fill="#EFEFEF"/>
<path d="M1000.51 695.146C999.143 695.689 998.579 697.45 999.344 698.748C1000.19 700.152 1001.91 700.417 1003.15 699.331C1003.73 698.827 1004 698.245 1004 697.516C1004 696.92 1003.72 696.139 1003.36 695.755C1002.75 695.093 1001.38 694.801 1000.51 695.146Z" fill="#EFEFEF"/>
<path d="M1142.38 695.24C1142.12 695.36 1141.72 695.693 1141.49 695.973C1141.14 696.387 1141.06 696.627 1141.02 697.333C1140.97 698.08 1141.01 698.267 1141.32 698.787C1141.82 699.6 1142.5 699.987 1143.46 700C1144.44 700 1145.16 699.653 1145.63 698.96C1145.95 698.493 1146 698.28 1146 697.453C1146 696.573 1145.96 696.44 1145.57 695.973C1145.03 695.307 1144.38 695 1143.53 695C1143.15 695 1142.64 695.107 1142.38 695.24Z" fill="#EFEFEF"/>
<path d="M1284.42 695.205C1283.81 695.51 1283.53 695.802 1283.26 696.386C1282.76 697.447 1282.99 698.588 1283.85 699.331C1284.78 700.127 1285.92 700.22 1286.93 699.57C1287.84 698.973 1288.23 697.686 1287.86 696.558C1287.68 696.027 1287 695.337 1286.46 695.138C1285.91 694.926 1284.89 694.966 1284.42 695.205Z" fill="#EFEFEF"/>
<path d="M1426.27 695.268C1424.9 695.983 1424.58 697.904 1425.61 699.123C1426.95 700.686 1429.41 700.063 1429.94 698.023C1430.2 696.95 1429.61 695.705 1428.58 695.175C1428.04 694.91 1426.89 694.95 1426.27 695.268Z" fill="#EFEFEF"/>
<path d="M76.4846 746.202C75.5533 746.603 75 747.447 75 748.464C75 749.267 75.2564 749.842 75.8503 750.364C77.0784 751.435 78.9274 751.114 79.7372 749.695C80.1556 748.946 80.0611 747.687 79.5483 747.005C78.833 746.081 77.5508 745.747 76.4846 746.202Z" fill="#EFEFEF"/>
<path d="M218.343 746.271C216.784 747.042 216.529 749.222 217.86 750.366C219.5 751.801 221.987 750.645 222 748.451C222 747.653 221.691 747.055 220.965 746.483C220.279 745.925 219.19 745.845 218.343 746.271Z" fill="#EFEFEF"/>
<path d="M359.504 746.174C358.984 746.413 358.437 746.997 358.184 747.608C357.45 749.346 359.024 751.284 360.917 750.965C361.544 750.859 362.424 750.249 362.691 749.718C362.997 749.134 363.091 748.338 362.904 747.78C362.691 747.156 362.024 746.4 361.477 746.174C360.931 745.935 360.024 745.949 359.504 746.174Z" fill="#EFEFEF"/>
<path d="M502.438 746.217C502.197 746.324 501.836 746.629 501.608 746.869C500.016 748.676 501.795 751.547 504.124 750.909C505.783 750.471 506.533 748.49 505.582 747.068C504.954 746.124 503.455 745.712 502.438 746.217Z" fill="#EFEFEF"/>
<path d="M644.322 746.247C643.495 746.686 643.075 747.338 643.02 748.323C642.966 749.041 643.007 749.254 643.305 749.733C643.658 750.332 644.362 750.811 645.121 750.971C646.07 751.157 647.426 750.425 647.819 749.481C648.212 748.576 647.941 747.245 647.236 746.62C646.518 745.968 645.189 745.808 644.322 746.247Z" fill="#EFEFEF"/>
<path d="M786.635 746.15C785.635 746.549 785 747.441 785 748.466C785 749.265 785.257 749.837 785.851 750.356C787.135 751.461 789.014 751.102 789.798 749.598C790.149 748.919 790.027 747.641 789.554 747.015C788.879 746.15 787.595 745.764 786.635 746.15Z" fill="#EFEFEF"/>
<path d="M929.338 746.284C927.785 747.04 927.531 749.226 928.856 750.365C930.288 751.624 932.442 750.922 932.924 749.04C933.125 748.245 932.924 747.503 932.349 746.841C931.573 745.98 930.422 745.754 929.338 746.284Z" fill="#EFEFEF"/>
<path d="M1071.51 746.17C1070.59 746.57 1069.88 747.824 1070.02 748.798C1070.26 750.598 1072.34 751.599 1073.82 750.612C1075.18 749.705 1075.39 748.051 1074.33 746.824C1074.09 746.557 1073.71 746.263 1073.47 746.17C1072.93 745.943 1072.02 745.943 1071.51 746.17Z" fill="#EFEFEF"/>
<path d="M1213.49 746.182C1212.91 746.421 1212.26 747.219 1212.09 747.871C1211.59 749.666 1213.33 751.408 1215.13 750.916C1216.78 750.477 1217.53 748.496 1216.58 747.073C1215.97 746.155 1214.51 745.73 1213.49 746.182Z" fill="#EFEFEF"/>
<path d="M1356.32 746.247C1355.47 746.686 1355.07 747.338 1355.01 748.363C1354.97 749.135 1355.01 749.308 1355.34 749.8C1355.73 750.372 1356.4 750.811 1357.12 750.971C1358.07 751.157 1359.43 750.425 1359.82 749.481C1360.21 748.576 1359.94 747.245 1359.24 746.62C1358.52 745.968 1357.19 745.808 1356.32 746.247Z" fill="#EFEFEF"/>
<path d="M5.46438 797.197C3.61937 798.029 3.48469 800.702 5.2489 801.683C5.84146 802.018 6.82457 802.099 7.43059 801.871C8.89852 801.306 9.46415 799.426 8.57531 798.083C7.94235 797.129 6.52829 796.727 5.46438 797.197Z" fill="#EFEFEF"/>
<path d="M147.431 797.156C146.527 797.575 145.987 798.468 146 799.564C146 800.281 146.149 800.647 146.675 801.202C147.188 801.756 147.687 801.986 148.443 802C150.332 802.013 151.533 800.16 150.764 798.428C150.373 797.521 149.685 797.061 148.659 797.007C148.16 796.98 147.674 797.034 147.431 797.156Z" fill="#EFEFEF"/>
<path d="M289.337 797.255C288.564 797.659 288.076 798.371 288.008 799.204C287.981 799.594 288.022 800.131 288.103 800.387C288.551 801.731 290.421 802.416 291.723 801.731C292.211 801.475 292.848 800.655 292.943 800.158C293.268 798.411 292.17 797 290.489 797C290.082 797 289.622 797.108 289.337 797.255Z" fill="#EFEFEF"/>
<path d="M431.405 797.208C429.541 798.178 429.527 800.833 431.392 801.803C431.888 802.059 433.055 802.072 433.551 801.803C434.463 801.331 435 800.469 435 799.485C435 798.448 434.356 797.477 433.444 797.14C432.894 796.925 431.875 796.965 431.405 797.208Z" fill="#EFEFEF"/>
<path d="M573.266 797.286C571.747 798.088 571.546 800.415 572.93 801.458C575.148 803.143 578.038 800.575 576.627 798.182C575.982 797.085 574.436 796.671 573.266 797.286Z" fill="#EFEFEF"/>
<path d="M715.281 797.324C713.952 798.128 713.603 799.762 714.489 800.994C715.496 802.387 717.671 802.32 718.624 800.874C718.933 800.418 719 800.164 719 799.494C719 798.811 718.933 798.57 718.624 798.128C717.872 797.043 716.355 796.668 715.281 797.324Z" fill="#EFEFEF"/>
<path d="M857.495 797.188C856.697 797.55 856.179 798.275 856.019 799.268C855.886 800.073 856.458 801.173 857.229 801.643C858.571 802.435 860.286 801.858 860.831 800.422C861.456 798.745 860.273 796.987 858.531 797C858.186 797.013 857.721 797.094 857.495 797.188Z" fill="#EFEFEF"/>
<path d="M1000.5 797.115C1000.06 797.291 999.454 797.887 999.198 798.374C998.955 798.847 998.928 800.051 999.158 800.498C999.642 801.445 1000.48 801.986 1001.45 802C1003.33 802.013 1004.53 800.16 1003.76 798.428C1003.36 797.508 1002.69 797.048 1001.66 797.007C1001.22 796.98 1000.69 797.034 1000.5 797.115Z" fill="#EFEFEF"/>
<path d="M1142.36 797.252C1140.94 798.005 1140.55 799.942 1141.58 801.112C1142.14 801.758 1142.65 802 1143.49 802C1146.11 802.027 1146.97 798.49 1144.65 797.252C1144.04 796.916 1142.96 796.916 1142.36 797.252Z" fill="#EFEFEF"/>
<path d="M1284.41 797.205C1282.78 798.044 1282.51 800.133 1283.86 801.371C1284.2 801.677 1285.41 802.089 1285.73 801.983C1285.83 801.956 1286.06 801.903 1286.26 801.863C1286.72 801.757 1287.53 801.078 1287.8 800.559C1288.07 800.053 1288.07 798.855 1287.81 798.363C1287.54 797.871 1286.93 797.312 1286.46 797.139C1285.91 796.926 1284.89 796.966 1284.41 797.205Z" fill="#EFEFEF"/>
<path d="M1426.27 797.255C1424.28 798.344 1424.72 801.435 1426.96 801.932C1429.62 802.537 1431.17 798.935 1428.91 797.389C1428.25 796.932 1426.98 796.865 1426.27 797.255Z" fill="#EFEFEF"/>
<path d="M77.2321 847.027C76.4886 847.17 76.3399 847.222 75.9478 847.534C75.0826 848.235 74.7582 849.507 75.1908 850.481C75.5287 851.286 76.6913 852 77.6512 852C78.1378 852 79.2463 851.364 79.5843 850.896C80.1926 850.027 80.1251 848.663 79.4356 847.897C78.8273 847.235 77.9621 846.898 77.2321 847.027Z" fill="#EFEFEF"/>
<path d="M218.939 847.065C217.396 847.395 216.563 849.099 217.234 850.539C218.362 852.983 222 852.177 222 849.482C222 847.858 220.537 846.709 218.939 847.065Z" fill="#EFEFEF"/>
<path d="M360.994 847.058C359.763 847.335 359 848.257 359 849.496C359 850.458 359.308 851.038 360.124 851.605C360.592 851.934 360.82 852 361.476 852C362.131 852 362.359 851.934 362.827 851.605C363.135 851.381 363.536 850.946 363.724 850.616C364.687 848.837 362.974 846.61 360.994 847.058Z" fill="#EFEFEF"/>
<path d="M502.984 847.055C500.871 847.528 500.282 850.284 502.021 851.518C504.121 853.015 506.837 850.757 505.753 848.42C505.285 847.423 504.054 846.806 502.984 847.055Z" fill="#EFEFEF"/>
<path d="M645.244 847.023C645.096 847.049 644.841 847.101 644.68 847.14C644.236 847.218 643.416 847.959 643.214 848.453C642.663 849.7 643.214 851.142 644.411 851.688C644.801 851.857 645.231 852 645.379 852C646.36 852 647.583 851.194 647.879 850.35C648.134 849.596 647.973 848.57 647.516 847.998C646.951 847.322 645.943 846.893 645.244 847.023Z" fill="#EFEFEF"/>
<path d="M786.852 847.124C786.5 847.215 786.054 847.423 785.865 847.592C785.068 848.307 784.771 849.542 785.19 850.479C785.527 851.285 786.689 852 787.635 852C787.784 852 788.216 851.857 788.608 851.688C789.541 851.272 790 850.531 790 849.477C790 848.606 789.797 848.164 789.122 847.605C788.703 847.241 788.487 847.15 787.703 847.007C787.581 846.981 787.203 847.033 786.852 847.124Z" fill="#EFEFEF"/>
<path d="M929.934 847.064C927.931 847.498 927.312 850.102 928.899 851.418C930.553 852.773 932.986 851.615 933 849.471C933.013 847.879 931.507 846.709 929.934 847.064Z" fill="#EFEFEF"/>
<path d="M1071.86 847.065C1071.11 847.223 1070.3 847.999 1070.1 848.762C1069.41 851.275 1072.41 853.078 1074.23 851.262C1076.05 849.473 1074.38 846.526 1071.86 847.065Z" fill="#EFEFEF"/>
<path d="M1214.01 847.055C1213.42 847.186 1213.08 847.383 1212.63 847.893C1211.01 849.701 1212.77 852.53 1215.12 851.914C1216.63 851.508 1217.42 849.845 1216.77 848.417C1216.31 847.422 1215.07 846.806 1214.01 847.055Z" fill="#EFEFEF"/>
<path d="M1357.24 847.016C1357.17 847.042 1356.94 847.094 1356.74 847.133C1356.24 847.236 1355.41 847.948 1355.2 848.466C1354.88 849.191 1354.96 850.188 1355.37 850.809C1355.79 851.43 1356.82 852 1357.49 852C1358.38 851.987 1359.54 851.21 1359.85 850.408C1360.35 849.165 1359.5 847.379 1358.3 847.146C1357.61 847.003 1357.37 846.977 1357.24 847.016Z" fill="#EFEFEF"/>
<path d="M5.39142 898.339C3.21934 899.414 3.68862 902.406 6.11545 902.963C7.02719 903.17 8.34117 902.484 8.77022 901.564C9.4138 900.178 8.64955 898.52 7.17468 898.118C6.43724 897.924 6.1959 897.95 5.39142 898.339Z" fill="#EFEFEF"/>
<path d="M147.903 898.071C146.211 898.585 145.472 900.443 146.412 901.853C147.285 903.197 149.246 903.395 150.293 902.261C150.857 901.668 151.045 901.115 150.991 900.298C150.924 899.454 150.481 898.743 149.729 898.308C149.246 898.031 148.386 897.913 147.903 898.071Z" fill="#EFEFEF"/>
<path d="M289.705 898.179C288.663 898.533 288 899.437 288 900.524C288 901.965 289.042 903 290.503 903C291.545 903 292.519 902.371 292.857 901.48C293.06 900.97 293.047 900.026 292.817 899.516C292.587 898.952 291.788 898.297 291.153 898.127C290.503 897.944 290.354 897.957 289.705 898.179Z" fill="#EFEFEF"/>
<path d="M431.692 898.138C429.366 898.979 429.46 902.227 431.84 902.898C433.454 903.358 434.986 902.214 435 900.531C435.013 898.821 433.279 897.572 431.692 898.138Z" fill="#EFEFEF"/>
<path d="M573.671 898.182C572.233 898.678 571.58 900.299 572.286 901.645C573.378 903.775 576.453 903.291 576.959 900.913C577.199 899.828 576.347 898.469 575.228 898.142C574.549 897.946 574.31 897.946 573.671 898.182Z" fill="#EFEFEF"/>
<path d="M715.727 898.096C715.099 898.28 714.271 899.148 714.097 899.805C713.643 901.435 714.832 902.987 716.516 903C717.317 903 718.079 902.592 718.573 901.909C719.107 901.159 719.147 900.002 718.653 899.227C718.052 898.267 716.796 897.78 715.727 898.096Z" fill="#EFEFEF"/>
<path d="M857.694 898.132C856.658 898.46 855.821 899.848 856.033 900.896C856.339 902.324 857.747 903.28 859.063 902.926C861.083 902.402 861.681 899.9 860.099 898.577C859.408 898.014 858.585 897.857 857.694 898.132Z" fill="#EFEFEF"/>
<path d="M1000.41 898.29C998.582 899.195 998.515 901.713 1000.3 902.697C1001.27 903.234 1002.58 903.038 1003.29 902.264C1003.86 901.674 1004.05 901.123 1003.99 900.31C1003.95 899.693 1003.84 899.444 1003.52 899.05C1002.66 897.988 1001.56 897.726 1000.41 898.29Z" fill="#EFEFEF"/>
<path d="M1142.7 898.178C1141.65 898.543 1141 899.428 1141 900.522C1141 901.303 1141.26 901.863 1141.85 902.371C1142.66 903.061 1143.71 903.191 1144.65 902.722C1145.11 902.501 1145.69 901.902 1145.86 901.46C1146.06 900.952 1146.05 900.014 1145.82 899.506C1145.59 898.947 1144.79 898.296 1144.15 898.126C1143.5 897.944 1143.35 897.957 1142.7 898.178Z" fill="#EFEFEF"/>
<path d="M1284.69 898.12C1282.37 898.965 1282.46 902.224 1284.81 902.897C1287 903.518 1288.78 901.208 1287.65 899.216C1287.11 898.265 1285.72 897.751 1284.69 898.12Z" fill="#EFEFEF"/>
<path d="M1426.68 898.178C1424.72 898.856 1424.39 901.422 1426.14 902.594C1427.74 903.675 1430.01 902.464 1430 900.523C1429.99 899.338 1429.29 898.439 1428.13 898.126C1427.46 897.944 1427.31 897.957 1426.68 898.178Z" fill="#EFEFEF"/>
<path d="M76.8488 948.127C74.8337 948.634 74.3333 951.275 76.0103 952.543C76.8894 953.196 78.3095 953.143 79.148 952.423C79.7566 951.902 80 951.329 80 950.462C80 949.648 79.7701 949.181 79.1209 948.621C78.7017 948.247 78.4853 948.154 77.7009 948.007C77.5792 947.98 77.2005 948.034 76.8488 948.127Z" fill="#EFEFEF"/>
<path d="M218.363 948.212C217.768 948.524 217.491 948.822 217.226 949.418C216.816 950.326 216.975 951.518 217.61 952.236C218.231 952.941 219.554 953.212 220.453 952.819C221.207 952.507 222 951.315 222 950.502C222 949.743 221.259 948.578 220.532 948.185C220.043 947.927 218.866 947.941 218.363 948.212Z" fill="#EFEFEF"/>
<path d="M359.259 948.292C358.99 948.44 358.6 948.805 358.385 949.116C357.888 949.873 357.874 951.076 358.331 951.833C359.339 953.442 361.92 953.374 362.74 951.711C363.129 950.914 363.076 949.805 362.619 949.103C361.933 948.062 360.401 947.683 359.259 948.292Z" fill="#EFEFEF"/>
<path d="M502.21 948.305C501.287 948.874 500.806 950.08 501.073 951.097C501.247 951.747 501.969 952.615 502.544 952.858C503.213 953.143 504.442 952.98 505.017 952.533C506.328 951.517 506.328 949.457 505.017 948.441C504.603 948.129 504.362 948.048 503.627 948.007C502.878 947.98 502.664 948.021 502.21 948.305Z" fill="#EFEFEF"/>
<path d="M644.488 948.139C644.053 948.315 643.428 948.897 643.183 949.371C642.939 949.831 642.939 950.982 643.183 951.551C643.768 952.959 645.833 953.473 647.028 952.498C647.789 951.889 648.047 951.32 647.993 950.332C647.952 949.642 647.871 949.398 647.531 948.978C647.3 948.694 646.906 948.356 646.648 948.234C646.145 947.963 645.031 947.922 644.488 948.139Z" fill="#EFEFEF"/>
<path d="M786.361 948.251C784.711 949.087 784.522 951.405 786.01 952.537C786.875 953.197 788.309 953.143 789.134 952.429C789.77 951.863 790 951.391 790 950.583C790 949.761 789.824 949.275 789.351 948.763C788.634 948.009 787.295 947.766 786.361 948.251Z" fill="#EFEFEF"/>
<path d="M929.374 948.218C928.774 948.529 928.494 948.827 928.228 949.422C927.815 950.329 927.975 951.52 928.614 952.237C929.24 952.941 930.573 953.212 931.479 952.819C932.425 952.427 933.157 951.073 932.971 950.126C932.811 949.382 932.331 948.664 931.758 948.326C931.106 947.934 929.987 947.893 929.374 948.218Z" fill="#EFEFEF"/>
<path d="M1071.28 948.263C1070.41 948.736 1069.87 949.856 1070.03 950.869C1070.39 953.136 1073.36 953.784 1074.6 951.881C1075.13 951.085 1075.13 949.897 1074.6 949.1C1074.4 948.79 1074 948.412 1073.71 948.263C1073.03 947.912 1071.95 947.912 1071.28 948.263Z" fill="#EFEFEF"/>
<path d="M1212.39 948.247C1211.63 948.733 1211 949.758 1211 950.5C1211 951.256 1211.74 952.417 1212.47 952.808C1213.28 953.226 1214.77 952.929 1215.39 952.228C1216.33 951.162 1216.16 949.34 1215.03 948.463C1214.37 947.95 1213.01 947.842 1212.39 948.247Z" fill="#EFEFEF"/>
<path d="M1356.42 948.125C1355.97 948.384 1355.39 948.969 1355.18 949.364C1354.95 949.8 1354.94 950.93 1355.14 951.474C1355.32 951.937 1355.89 952.563 1356.37 952.822C1356.86 953.081 1358.07 953.053 1358.64 952.767C1360.3 951.937 1360.48 949.582 1358.97 948.425C1358.57 948.125 1358.31 948.043 1357.58 948.003C1357.06 947.989 1356.56 948.03 1356.42 948.125Z" fill="#EFEFEF"/>
</g>
<defs>
<clipPath id="clip0_2214_2339">
<rect width="1440" height="982" fill="white" transform="translate(0 0.333252)"/>
</clipPath>
</defs>
</svg>
